<svg width="78" height="78" viewBox="0 0 78 78" fill="none" xmlns="http://www.w3.org/2000/svg">
<circle cx="39" cy="39" r="38.5" stroke="#161A1E"/>
<path d="M47.6144 36.0589C48.1264 36.0589 48.5692 35.8761 48.9426 35.5106C49.3161 35.145 49.5028 34.7062 49.5028 34.1942C49.5028 33.6822 49.32 33.2394 48.9544 32.866C48.5888 32.4926 48.15 32.3058 47.6381 32.3058C47.126 32.3058 46.6833 32.4886 46.3099 32.8542C45.9364 33.2198 45.7497 33.6586 45.7497 34.1706C45.7497 34.6826 45.9325 35.1253 46.298 35.4988C46.6636 35.8722 47.1024 36.0589 47.6144 36.0589ZM30.9614 32.0258H41.4364V28.2727H30.9614V32.0258ZM22.8576 57.5691C21.6876 52.9571 20.5051 48.7402 19.3101 44.9182C18.1151 41.0963 17.5175 37.2936 17.5175 33.5102C17.5175 30.176 18.6772 27.3493 20.9967 25.0299C23.3161 22.7104 26.1428 21.5507 29.477 21.5507H40.7082C41.8184 20.2437 43.1504 19.2447 44.7044 18.5539C46.2583 17.863 47.9044 17.5176 49.6428 17.5176C50.3473 17.5176 50.9482 17.7652 51.4455 18.2605C51.9429 18.7557 52.1916 19.3571 52.1916 20.0646C52.1916 20.3539 52.1542 20.6432 52.0795 20.9325C52.0048 21.2219 51.8928 21.5119 51.7434 21.8028C51.538 22.1949 51.3549 22.5776 51.1941 22.9508C51.0334 23.3239 50.9177 23.7255 50.8472 24.1555L56.3087 29.6171H60.2579V44.1533L54.2257 45.4937L50.8752 57.5691H39.0278V53.536H34.7145V57.5691H22.8576ZM25.6679 53.8161H30.9614V49.7829H42.7808V53.8161H48.0183L51.2221 42.3086L56.5048 41.1284V33.3702H54.7403L47.0941 25.7134C47.0941 25.003 47.1501 24.2974 47.2621 23.5965C47.3742 22.8955 47.5235 22.1949 47.7103 21.4947C46.6833 21.7935 45.7217 22.2463 44.8254 22.8531C43.9292 23.46 43.1636 24.2769 42.5288 25.3038H29.477C27.2105 25.3038 25.2761 26.1049 23.6739 27.7071C22.0717 29.3093 21.2706 31.2437 21.2706 33.5102C21.2706 36.6471 21.7686 39.8773 22.7645 43.2008C23.7604 46.5244 24.7282 50.0628 25.6679 53.8161Z" fill="#161A1E"/>
</svg>
