<svg width="78" height="78" viewBox="0 0 78 78" fill="none" xmlns="http://www.w3.org/2000/svg">
<circle cx="39" cy="39" r="38.5" stroke="#161A1E"/>
<path d="M37.0111 54.7403H40.7642V52.0515H41.5764C42.2822 52.0515 42.8835 51.8032 43.3801 51.3065C43.8768 50.8098 44.1251 50.2086 44.1251 49.5028V45.4696C44.1251 44.7638 43.8768 44.1626 43.3801 43.6659C42.8835 43.1692 42.2822 42.9209 41.5764 42.9209H36.0588V38.6076H44.1251V36.1989H40.7642V33.5102H37.0111V36.1989H36.1989C35.4931 36.1989 34.8918 36.4473 34.3951 36.944C33.8985 37.4406 33.6501 38.0419 33.6501 38.7477V42.7808C33.6501 43.4867 33.8985 44.0879 34.3951 44.5846C34.8918 45.0812 35.4931 45.3296 36.1989 45.3296H41.7164V49.6428H33.6501V52.0515H37.0111V54.7403ZM26.9964 59.8378C25.9636 59.8378 25.0825 59.4703 24.3532 58.7353C23.6238 58.0003 23.2591 57.1168 23.2591 56.0847V21.6908C23.2591 20.6586 23.6266 19.7751 24.3616 19.0401C25.0966 18.3052 25.9801 17.9377 27.0122 17.9377H44.2652L54.5161 28.1606V56.0847C54.5161 57.1168 54.1484 58.0003 53.413 58.7353C52.6776 59.4703 51.7935 59.8378 50.7608 59.8378H26.9964ZM41.9965 30.8214V21.6908H27.0122V56.0847H50.7631V30.8214H41.9965Z" fill="#161A1E"/>
</svg>
