<svg width="78" height="78" viewBox="0 0 78 78" fill="none" xmlns="http://www.w3.org/2000/svg">
<circle cx="39" cy="39" r="38.5" stroke="#161A1E"/>
<path d="M59.8379 27.0123V50.7631C59.8379 51.7691 59.4704 52.6461 58.7354 53.3942C58.0004 54.1422 57.1169 54.5162 56.0848 54.5162H21.6909C20.6849 54.5162 19.8079 54.1422 19.0598 53.3942C18.3118 52.6461 17.9378 51.7691 17.9378 50.7631V27.0123C17.9378 26.0063 18.3118 25.1293 19.0598 24.3813C19.8079 23.6332 20.6849 23.2592 21.6909 23.2592H56.0848C57.1169 23.2592 58.0004 23.6332 58.7354 24.3813C59.4704 25.1293 59.8379 26.0063 59.8379 27.0123ZM21.6909 31.1015H56.0848V27.0123H21.6909V31.1015ZM21.6909 38.7197V50.7631H56.0848V38.7197H21.6909Z" fill="#161A1E"/>
</svg>
