<svg width="78" height="78" viewBox="0 0 78 78" fill="none" xmlns="http://www.w3.org/2000/svg">
<circle cx="39" cy="39" r="38.5" stroke="#161A1E"/>
<path d="M37.0113 57.261V52.8917C35.1627 52.4996 33.5616 51.6687 32.2079 50.399C30.8542 49.1293 29.8972 47.5702 29.3371 45.7216L33.2022 44.0972C33.5383 45.4415 34.2992 46.6272 35.4848 47.6542C36.6705 48.6812 37.9075 49.1946 39.1959 49.1946C40.7083 49.1946 41.9267 48.8165 42.851 48.0603C43.7752 47.3041 44.2374 46.3378 44.2374 45.1615C44.2374 44.0411 43.8219 43.0795 42.991 42.2766C42.1601 41.4737 40.6523 40.7175 38.4677 40.008C35.7042 39.037 33.6596 37.9727 32.3339 36.8151C31.0082 35.6574 30.3454 34.0703 30.3454 32.0537C30.3454 30.2425 30.9522 28.6787 32.1659 27.3623C33.3796 26.046 34.9947 25.1824 37.0113 24.7716V20.4583H40.7644V24.7716C43.5278 25.2197 45.3343 26.2607 46.1839 27.8945C47.0335 29.5283 47.449 30.2798 47.4303 30.1491L43.7892 31.6616C43.5092 30.8027 42.9023 30.0464 41.9687 29.3929C41.0351 28.7394 40.0175 28.4126 38.9158 28.4126C37.6648 28.4126 36.6052 28.7441 35.7369 29.4069C34.8687 30.0698 34.4345 30.9147 34.4345 31.9417C34.4345 32.8566 34.836 33.6595 35.6389 34.3504C36.4418 35.0412 38.0569 35.7881 40.4843 36.591C43.2104 37.4686 45.2083 38.5562 46.478 39.8539C47.7477 41.1516 48.3639 42.9208 48.3265 45.1615C48.2892 47.1781 47.603 48.9099 46.268 50.357C44.9329 51.8041 43.0984 52.705 40.7644 53.0597V57.261H37.0113Z" fill="#161A1E"/>
</svg>
