<svg width="78" height="78" viewBox="0 0 78 78" fill="none" xmlns="http://www.w3.org/2000/svg">
<circle cx="39" cy="39" r="38.5" stroke="#161A1E"/>
<path d="M53.424 43.313V28.8328L42.5289 20.9626L31.6337 28.8496V32.894H27.8807V26.9843L42.5289 16.3132L57.1771 26.9283V43.313H53.424ZM43.5372 30.5413H45.5537V28.5248H43.5372V30.5413ZM39.504 30.5413H41.5206V28.5248H39.504V30.5413ZM43.5372 34.5745H45.5537V32.5579H43.5372V34.5745ZM39.504 34.5745H41.5206V32.5579H39.504V34.5745ZM28.1327 52.8358L42.809 57.3731L55.8047 53.3959C55.562 52.5557 55.1206 51.9162 54.4807 51.4774C53.8407 51.0386 53.031 50.8192 52.0516 50.8192H40.4563C39.7841 50.8192 39.1306 50.7725 38.4957 50.6791C37.8609 50.5858 37.2634 50.4271 36.7032 50.203L33.0061 48.8306L34.1825 45.2176L38.1499 46.674C38.5672 46.8234 38.9485 46.9307 39.2939 46.9961C39.6394 47.0614 39.8961 47.0848 40.0642 47.0661H45.4977C45.4977 46.6927 45.4044 46.3671 45.2177 46.0895C45.0309 45.8118 44.7509 45.5959 44.3774 45.4416L30.2053 40.4002H28.1327V52.8358ZM15.305 59.8378V36.6471H30.0933C30.3734 36.6471 30.6348 36.6704 30.8775 36.7171C31.1203 36.7638 31.3623 36.826 31.6035 36.9036L45.7778 41.9686C46.8421 42.3607 47.687 42.9863 48.3125 43.8452C48.9381 44.7041 49.2508 45.7777 49.2508 47.0661H52.0516C54.2145 47.0661 56.0529 47.8036 57.5669 49.2787C59.0809 50.7538 59.8379 52.6304 59.8379 54.9084V56.0287L42.893 61.2942L28.1327 56.7569V59.8378H15.305ZM19.0581 56.0847H24.3796V40.4002H19.0581V56.0847Z" fill="#161A1E"/>
</svg>
